#!OML:ASF F:\VICON\USERDATA\INSTALL\rory3\rory3.ASF
:FULLY-SPECIFIED
:DEGREES
3918
root 15.2112 17.892 -7.17064 179.068 -160.003 1264.85
lowerback 10.9605 1.08043 -3.43909
upperback 0.290568 0.988698 -0.143876
thorax -5.9071 0.577191 1.6309
lowerneck -21.466 -4.6336 -11.4818
upperneck 32.9671 -4.8892 6.42648
head 15.7525 -2.6441 3.76222
rclavicle -4.20927e-014 -1.19271e-015
rhumerus -32.8697 -5.57352 -83.2587
rradius 37.8673
rwrist 2.79738
rhand -18.4455 8.13718
rfingers 7.12502
rthumb 7.84037 -21.6974
lclavicle -4.20927e-014 -1.19271e-015
lhumerus -34.3569 6.53115 83.5151
lradius 29.7434
lwrist -7.83707
lhand -17.5608 25.9581
lfingers 7.12502
lthumb 8.69422 55.759
rfemur -17.9058 -7.73475 13.5281
rtibia 57.9562
rfoot -14.2451 -1.97961
rtoes 2.71237
lfemur -2.47733 4.70027 -30.1101
ltibia 15.7406
lfoot -9.49844 1.86629
ltoes -8.83242
3919
root 15.1926 17.8936 -7.10813 179.155 -160.635 1264.73
lowerback 11.0405 1.00212 -3.48513
upperback 0.386935 0.880739 -0.0848486
thorax -5.84597 0.524072 1.7361
lowerneck -21.6566 -4.6828 -11.5114
upperneck 32.9701 -4.95478 6.51281
head 15.8105 -2.65877 3.79184
rclavicle -9.95911e-014 1.98785e-015
rhumerus -32.7178 -5.52646 -83.3065
rradius 37.7408
rwrist 2.85188
rhand -18.5866 7.72963
rfingers 7.12502
rthumb 7.70416 -22.11
lclavicle -9.95911e-014 1.98785e-015
lhumerus -34.1444 6.17021 83.7611
lradius 30.0636
lwrist -7.75233
lhand -17.4595 25.914
lfingers 7.12502
lthumb 8.7919 55.7109
rfemur -18.7427 -6.97742 13.9358
rtibia 57.9953
rfoot -14.5982 -2.34572
rtoes 2.7274
lfemur -2.37505 4.46846 -29.9701
ltibia 15.8352
lfoot -9.65409 1.47602
ltoes -7.25395
3920
root 15.1742 17.8967 -7.04341 179.13 -161.229 1264.76
lowerback 11.1167 0.95332 -3.68972
upperback 0.557101 0.7904 -0.0720349
thorax -5.70706 0.480629 1.87991
lowerneck -21.9183 -4.74112 -11.4529
upperneck 32.9302 -5.03658 6.54385
head 15.8611 -2.67414 3.77667
rclavicle 4.10987e-014 1.35174e-014
rhumerus -32.4582 -5.67981 -83.3226
rradius 37.5841
rwrist 3.04862
rhand -18.1963 8.05471
rfingers 7.12502
rthumb 8.08085 -21.7708
lclavicle 4.10987e-014 1.35174e-014
lhumerus -33.6696 5.64801 84.0515
lradius 30.2607
lwrist -7.45266
lhand -17.6673 26.0055
lfingers 7.12502
lthumb 8.59139 55.8107
rfemur -19.4527 -6.17324 14.1081
rtibia 57.9265
rfoot -14.8139 -2.51836
rtoes 1.36237
lfemur -2.23721 4.23994 -30.0124
ltibia 15.9087
lfoot -9.82559 1.17987
ltoes -6.50877
3921
root 15.1611 17.8935 -6.97583 179.119 -161.873 1264.85
lowerback 11.2046 0.86861 -3.84679
upperback 0.52924 0.653844 -0.0688555
thorax -5.77949 0.419423 1.99288
lowerneck -21.642 -4.73802 -11.4635
upperneck 32.8848 -5.06978 6.56676
head 15.7803 -2.68907 3.78139
rclavicle 2.6985e-014 -3.97569e-015
rhumerus -32.6788 -5.64942 -83.2575
rradius 37.5074
rwrist 3.19351
rhand -18.1104 8.11268
rfingers 7.12502
rthumb 8.16377 -21.7096
lclavicle 2.6985e-014 -3.97569e-015
lhumerus -33.5665 5.13451 84.3275
lradius 30.5006
lwrist -7.14341
lhand -17.5926 26.4781
lfingers 7.12502
lthumb 8.6635 56.2803
rfemur -20.1584 -5.4688 14.1639
rtibia 57.7796
rfoot -14.8 -2.60468
rtoes -0.550087
lfemur -2.0772 3.92024 -30.136
ltibia 16.0194
lfoot -10.0362 1.00745
ltoes -6.27684
3922
root 15.1462 17.8857 -6.91094 179.179 -162.602 1264.77
lowerback 11.3384 0.750054 -3.82607
upperback 0.456659 0.49371 -0.0379217
thorax -5.92108 0.344393 2.03859
lowerneck -21.3544 -4.76653 -11.5337
upperneck 32.8827 -5.13842 6.60997
head 15.7259 -2.72504 3.79987
rclavicle -2.29099e-014 5.1684e-015
rhumerus -32.9979 -5.52954 -83.229
rradius 37.5129
rwrist 3.38714
rhand -18.4266 7.88608
rfingers 7.12502
rthumb 7.85858 -21.9479
lclavicle -2.29099e-014 5.1684e-015
lhumerus -33.5421 4.72961 84.54
lradius 30.7245
lwrist -7.05707
lhand -17.2509 26.678
lfingers 7.12502
lthumb 8.99328 56.4663
rfemur -20.9044 -4.82878 14.4164
rtibia 57.5667
rfoot -14.8459 -2.91737
rtoes -1.37872
lfemur -1.88891 3.60979 -30.0575
ltibia 16.0751
lfoot -10.0409 0.739212
ltoes -4.82083
3923
root 15.1305 17.883 -6.84263 179.213 -163.352 1264.76
lowerback 11.4576 0.635971 -3.81481
upperback 0.459182 0.336928 -0.0624064
thorax -5.97496 0.267802 2.03179
lowerneck -21.2762 -4.83105 -11.5809
upperneck 32.8785 -5.26462 6.71482
head 15.7277 -2.76957 3.82904
rclavicle -2.07233e-014 -1.59028e-015
rhumerus -33.0563 -5.63594 -83.2312
rradius 37.3628
rwrist 3.63684
rhand -18.585 8.03951
rfingers 7.12502
rthumb 7.70576 -21.8001
lclavicle -2.07233e-014 -1.59028e-015
lhumerus -33.445 4.35579 84.6754
lradius 31.0134
lwrist -7.05827
lhand -17.0903 26.8593
lfingers 7.12502
lthumb 9.14818 56.6409
rfemur -21.5972 -4.29252 14.5607
rtibia 57.2582
rfoot -15.2502 -3.02166
rtoes -1.54434
lfemur -1.6386 3.35404 -30.0457
ltibia 16.0835
lfoot -10.1752 0.498139
ltoes -5.05415
3924
root 15.1138 17.884 -6.77076 179.21 -163.985 1264.85
lowerback 11.5213 0.549341 -3.97017
upperback 0.492297 0.198196 -0.0808339
thorax -5.96744 0.203185 2.12294
lowerneck -21.1959 -4.86047 -11.6595
upperneck 32.8315 -5.34386 6.8741
head 15.7055 -2.79 3.89559
rclavicle 5.76476e-015 3.18055e-015
rhumerus -33.0845 -5.65793 -83.25
rradius 37.272
rwrist 3.67755
rhand -18.6422 7.98823
rfingers 7.12502
rthumb 7.65053 -21.8534
lclavicle 5.76476e-015 3.18055e-015
lhumerus -33.3575 4.03586 84.8296
lradius 31.3877
lwrist -6.98765
lhand -17.1841 27.1829
lfingers 7.12502
lthumb 9.05775 56.9684
rfemur -22.2289 -3.67318 14.5237
rtibia 56.8486
rfoot -15.8535 -2.84299
rtoes -1.19258
lfemur -1.33599 3.20397 -30.1463
ltibia 16.0619
lfoot -10.425 0.275999
ltoes -6.04177
3925
root 15.0945 17.8776 -6.70262 179.215 -164.521 1264.96
lowerback 11.6132 0.498976 -4.24987
upperback 0.508187 0.0917172 -0.0598661
thorax -5.996 0.159336 2.3206
lowerneck -21.1287 -4.87435 -11.7599
upperneck 32.7932 -5.37342 6.9905
head 15.6838 -2.79846 3.95733
rclavicle -3.81667e-014 3.61788e-014
rhumerus -33.2372 -5.54158 -83.2683
rradius 37.3701
rwrist 3.61203
rhand -18.7842 7.71073
rfingers 7.12502
rthumb 7.51348 -22.1358
lclavicle -3.81667e-014 3.61788e-014
lhumerus -33.2184 3.66792 85.0597
lradius 31.6626
lwrist -6.75262
lhand -17.2257 27.5704
lfingers 7.12502
lthumb 9.01754 57.3577
rfemur -22.9071 -3.20454 14.5583
rtibia 56.3217
rfoot -15.9105 -2.92916
rtoes -2.5433
lfemur -1.12225 3.06771 -30.2496
ltibia 16.1322
lfoot -10.3682 0.0196105
ltoes -4.54639
3926
root 15.077 17.8698 -6.63772 179.236 -165.087 1265
lowerback 11.7521 0.453086 -4.38802
upperback 0.515373 0.00645293 -0.0462101
thorax -6.06042 0.122867 2.4275
lowerneck -21.0146 -4.9305 -11.8699
upperneck 32.7194 -5.47411 7.12545
head 15.645 -2.83531 4.01332
rclavicle -1.39149e-015 4.37326e-015
rhumerus -33.3207 -5.73897 -83.1955
rradius 37.3298
rwrist 3.80415
rhand -18.7999 7.69182
rfingers 7.12502
rthumb 7.49826 -22.1553
lclavicle -1.39149e-015 4.37326e-015
lhumerus -33.0676 3.32098 85.2417
lradius 31.8464
lwrist -6.83224
lhand -17.2007 27.7581
lfingers 7.12502
lthumb 9.04163 57.5443
rfemur -23.5272 -2.62074 14.6193
rtibia 55.6667
rfoot -15.8331 -2.53927
rtoes -1.65758
lfemur -0.928263 2.96368 -30.2627
ltibia 16.2195
lfoot -10.3675 -0.417493
ltoes -2.99047
3927
root 15.0618 17.8597 -6.57039 179.37 -165.633 1264.9
lowerback 11.7639 0.384171 -4.30311
upperback 0.547351 -0.0731421 -0.0429837
thorax -6.0271 0.0803589 2.39631
lowerneck -20.9433 -5.00087 -11.8324
upperneck 32.5618 -5.59828 7.14087
head 15.5687 -2.87707 3.98291
rclavicle 2.8128e-014 -1.94809e-014
rhumerus -33.3307 -5.94891 -83.1618
rradius 37.2631
rwrist 3.99176
rhand -18.4871 8.17433
rfingers 7.12502
rthumb 7.80019 -21.6618
lclavicle 2.8128e-014 -1.94809e-014
lhumerus -32.9306 3.0895 85.3187
lradius 32.1217
lwrist -7.0426
lhand -16.9682 27.7895
lfingers 7.12502
lthumb 9.26607 57.5659
rfemur -24.2062 -2.04156 14.8249
rtibia 54.8854
rfoot -15.9792 -2.38869
rtoes -3.20316
lfemur -0.824299 2.69767 -30.1606
ltibia 16.3114
lfoot -10.569 -0.72543
ltoes -2.72489
3928
root 15.0462 17.8526 -6.49857 179.463 -166.126 1264.81
lowerback 11.7841 0.301387 -4.24056
upperback 0.592896 -0.173442 -0.026653
thorax -5.98274 0.0280577 2.39499
lowerneck -20.974 -5.02487 -11.7513
upperneck 32.4959 -5.62504 7.05924
head 15.5414 -2.88643 3.92515
rclavicle 3.32964e-015 1.19271e-014
rhumerus -33.3806 -5.83111 -83.2761
rradius 37.2707
rwrist 3.66417
rhand -18.1735 8.81392
rfingers 7.12502
rthumb 8.10293 -21.0107
lclavicle 3.32964e-015 1.19271e-014
lhumerus -32.8624 2.97305 85.3854
lradius 32.5123
lwrist -7.0587
lhand -16.5257 27.8565
lfingers 7.12502
lthumb 9.69296 57.6135
rfemur -24.8089 -1.50993 14.986
rtibia 54.0091
rfoot -15.9966 -2.13889
rtoes -0.80606
lfemur -0.648541 2.39001 -30.0684
ltibia 16.3878
lfoot -10.7705 -0.833168
ltoes -2.61069
3929
root 15.0303 17.8455 -6.42554 179.491 -166.65 1264.83
lowerback 11.8692 0.218655 -4.31356
upperback 0.646562 -0.294973 -0.0110321
thorax -5.96436 -0.0305661 2.47338
lowerneck -21.1793 -5.05096 -11.7141
upperneck 32.5833 -5.6459 7.03708
head 15.631 -2.89087 3.90721
rclavicle 2.80286e-014 -1.15295e-014
rhumerus -33.3904 -5.81317 -83.3092
rradius 37.2286
rwrist 3.37399
rhand -17.9674 9.29987
rfingers 7.12502
rthumb 8.30181 -20.517
lclavicle 2.80286e-014 -1.15295e-014
lhumerus -32.7069 2.93337 85.4527
lradius 32.6638
lwrist -7.63942
lhand -16.4639 27.9734
lfingers 7.12502
lthumb 9.75258 57.7276
rfemur -25.3192 -1.11048 15.0186
rtibia 53.1083
rfoot -15.8348 -1.71955
rtoes -2.44781
lfemur -0.392154 2.20523 -30.0664
ltibia 16.4111
lfoot -10.9446 -1.17163
ltoes -2.15377
